<?xml version="1.0" standalone="no"?>
<!DOCTYPE svg PUBLIC "-//W3C//DTD SVG 20010904//EN"
 "http://www.w3.org/TR/2001/REC-SVG-20010904/DTD/svg10.dtd">
<svg version="1.0" xmlns="http://www.w3.org/2000/svg"
 width="137.000000pt" height="137.000000pt" viewBox="0 0 137.000000 137.000000"
 preserveAspectRatio="xMidYMid meet">
<metadata>
Created by potrace 1.16, written by Peter Selinger 2001-2019
</metadata>
<g transform="translate(0.000000,137.000000) scale(0.100000,-0.100000)"
fill="#000000" stroke="none">
<path d="M0 685 l0 -685 685 0 685 0 0 685 0 685 -685 0 -685 0 0 -685z m613
-139 l47 -28 48 27 c26 15 54 34 64 42 14 13 25 9 92 -29 83 -48 93 -65 82
-143 -9 -54 -59 -111 -107 -120 l-34 -6 0 -65 c0 -59 -3 -66 -33 -94 -18 -16
-42 -30 -52 -30 -10 0 -22 -4 -25 -10 -8 -13 -72 -13 -80 0 -3 6 -13 10 -21
10 -22 0 -74 51 -74 72 0 9 -4 20 -10 23 -5 3 -10 22 -10 41 0 19 5 34 10 34
25 0 6 20 -24 26 -46 8 -109 70 -103 101 2 13 0 20 -6 16 -6 -4 -8 11 -4 43 3
26 9 50 14 51 4 2 37 23 73 47 56 37 68 41 85 31 11 -6 41 -24 68 -39z"/>
</g>
</svg>
